<?xml version="1.0" encoding="UTF-8" standalone="no"?>
<!-- Created with Inkscape (http://www.inkscape.org/) -->

<svg
   xmlns:dc="http://purl.org/dc/elements/1.1/"
   xmlns:cc="http://creativecommons.org/ns#"
   xmlns:rdf="http://www.w3.org/1999/02/22-rdf-syntax-ns#"
   xmlns:svg="http://www.w3.org/2000/svg"
   xmlns="http://www.w3.org/2000/svg"
   xmlns:sodipodi="http://sodipodi.sourceforge.net/DTD/sodipodi-0.dtd"
   xmlns:inkscape="http://www.inkscape.org/namespaces/inkscape"
   width="128"
   height="128"
   id="svg2"
   inkscape:label="Pozadí"
   version="1.1"
   inkscape:version="0.48.4 r9939"
   sodipodi:docname="Nový dokument 1">
  <defs
     id="defs3" />
  <sodipodi:namedview
     id="base"
     pagecolor="#ffffff"
     bordercolor="#666666"
     borderopacity="1.0"
     inkscape:pageopacity="0.0"
     inkscape:pageshadow="2"
     inkscape:zoom="3.2958934"
     inkscape:cx="96.869713"
     inkscape:cy="86.311651"
     inkscape:document-units="px"
     inkscape:current-layer="layer1"
     showgrid="false"
     width="96px"
     borderlayer="true"
     inkscape:window-width="1547"
     inkscape:window-height="879"
     inkscape:window-x="53"
     inkscape:window-y="21"
     inkscape:window-maximized="1" />
  <metadata
     id="metadata6">
    <rdf:RDF>
      <cc:Work
         rdf:about="">
        <dc:format>image/svg+xml</dc:format>
        <dc:type
           rdf:resource="http://purl.org/dc/dcmitype/StillImage" />
        <dc:title></dc:title>
      </cc:Work>
    </rdf:RDF>
  </metadata>
  <g
     inkscape:label="Vrstva 1"
     inkscape:groupmode="layer"
     id="layer1"
     transform="translate(0,-924.3622)">
    <rect
       style="fill:#0900ff;fill-opacity:1;stroke:#000000;stroke-width:0;stroke-miterlimit:4;stroke-opacity:1;stroke-dasharray:none"
       id="rect2984"
       width="48.33408"
       height="32.025761"
       x="11.774185"
       y="995.3642" />
    <rect
       style="fill:#31ff00;fill-opacity:1;stroke:#000000;stroke-width:0;stroke-miterlimit:4;stroke-opacity:1;stroke-dasharray:none"
       id="rect2984-4"
       width="48.33408"
       height="32.025761"
       x="-711.88348"
       y="-748.99109"
       transform="matrix(-0.76502457,-0.64400109,0.64400109,-0.76502457,0,0)" />
    <path
       style="fill:#f1f2dc;fill-opacity:1;stroke:none"
       d="m 91.450002,926.66617 c -4.32316,-0.0759 -8.07768,2.73749 -9.33861,6.98975 -0.42722,1.44073 -0.50578,5.42161 -0.32203,15.32443 0.0638,3.44037 -0.0459,5.50527 -0.30308,5.98581 -0.21589,0.4034 -1.77454,2.60035 -3.46646,4.88715 -3.46855,4.68808 -4.12961,5.94882 -6.40254,12.23681 -0.88554,2.44982 -1.93622,5.07421 -2.32992,5.83427 -0.47543,0.91782 -0.73441,2.08687 -0.7577,3.48541 -0.0277,1.6644 -0.20111,2.34835 -0.87135,3.23916 -2.08043,2.76506 -2.90898,3.39366 -5.53119,4.16733 -1.41613,0.41783 -2.94317,1.0872 -3.3907,1.49645 -0.75215,0.68784 -0.79091,0.91708 -0.56827,2.99291 0.2949,2.74956 0.28957,3.32716 0.0189,6.3836 l -0.15154,1.68595 -0.0758,0.2652 0.0189,1.4774 0.0189,0.019 0,0.057 c 0,1.1806 1.9861,2.0143 6.42149,2.7277 1.8854,0.3032 5.67416,1.3194 8.42938,2.2541 3.96163,1.344 5.49048,1.7012 7.27389,1.7049 2.37094,0 2.9418,-0.2331 4.71667,-2.0079 0.84007,-0.8401 1.42148,-1.038 4.11051,-1.3828 3.95159,-0.5068 8.68219,-0.5167 12.028438,-0.019 2.46862,0.3671 2.66613,0.4741 3.84532,1.9131 1.14963,1.403 1.36093,1.5106 2.8603,1.4965 l 0.56828,0 c 0.88804,0.1171 1.99027,0.1499 3.14444,-0.038 l 0.0379,0 c 1.66457,0.034 1.92969,-0.062 3.80743,-1.6669 1.10797,-0.9468 4.25348,-2.9925 7.0087,-4.5462 5.96115,-3.3615 6.58345,-3.8593 6.55408,-5.28491 0.45279,-1.95958 -0.26954,-3.22927 -1.62905,-4.12945 -2.22137,-1.46243 -2.86091,-1.9075 -3.37175,-4.84926 -0.24838,-1.43031 -0.77078,-3.03983 -1.15549,-3.58012 -0.58427,-0.82052 -0.64219,-1.21334 -0.37885,-2.34886 0.17339,-0.7477 0.32135,-2.76028 0.32202,-4.47041 0.002,-5.25211 -1.12947,-7.67389 -8.884,-19.13186 -2.36417,-3.49327 -4.5291,-6.98433 -4.81138,-7.7664 -0.28228,-0.78207 -0.7297,-4.23248 -0.98501,-7.65274 -0.71887,-9.63025 -2.35666,-13.70172 -6.68668,-16.55569 -1.688118,-1.11266 -2.077688,-1.23023 -4.148388,-1.19337 -1.67489,0.0298 -2.10753,0.0393 -1.57222,0.15154 -0.95246,-0.003 -1.89321,0.0156 -2.74665,0.0568 l 1.00394,-0.17048 -2.31097,-0.0379 z"
       id="path3026-0"
       inkscape:connector-curvature="0"
       sodipodi:nodetypes="cscsssscsscscccccscsccccccccccsccscccsssssccccc" />
    <rect
       style="fill:#ff3200;fill-opacity:1;stroke:#000000;stroke-width:0;stroke-miterlimit:4;stroke-opacity:1;stroke-dasharray:none"
       id="rect2984-6"
       width="48.33408"
       height="32.025761"
       x="-290.49228"
       y="977.07111"
       transform="matrix(0.95260338,-0.30421506,0.30421506,0.95260338,0,0)" />
    <path
       style="fill:#000000;fill-opacity:1;stroke:none"
       d="m 91.240765,926.50992 c -4.323161,-0.0759 -8.077689,2.73749 -9.338619,6.98975 -0.42722,1.44073 -0.505774,5.42161 -0.322022,15.32443 0.06384,3.44037 -0.0459,5.50527 -0.303079,5.98581 -0.215894,0.4034 -1.77454,2.60035 -3.466465,4.88715 -3.468549,4.68808 -4.129612,5.94882 -6.402543,12.23681 -0.885537,2.44982 -1.936216,5.07421 -2.329919,5.83427 -0.475423,0.91782 -0.734403,2.08687 -0.757697,3.48541 -0.02772,1.6644 -0.201115,2.34835 -0.871352,3.23916 -2.080424,2.76506 -2.908981,3.39366 -5.531191,4.16733 -1.416126,0.41783 -2.94317,1.0872 -3.390695,1.49645 -0.752157,0.68784 -0.790916,0.91708 -0.568273,2.99291 0.294902,2.74956 0.289572,3.32716 0.01894,6.3836 l -0.151539,1.6859 -0.07577,0.2652 0.01894,1.4775 0.01894,0.019 0,0.057 c 0,1.1806 1.9861,2.0143 6.421485,2.7277 1.885408,0.3032 5.674168,1.3194 8.429383,2.2541 3.961631,1.344 5.490478,1.7012 7.273894,1.7049 2.370938,0 2.941801,-0.2331 4.716666,-2.0079 0.840074,-0.8401 1.421482,-1.038 4.110508,-1.3828 3.951598,-0.5068 8.682189,-0.5167 12.028443,-0.019 2.46862,0.3671 2.66613,0.4741 3.84532,1.9131 1.14963,1.403 1.36093,1.5106 2.8603,1.4965 l 0.56828,0 c 0.88804,0.1171 1.99027,0.1499 3.14444,-0.038 l 0.0379,0 c 1.66457,0.034 1.92969,-0.062 3.80743,-1.6669 1.10797,-0.9468 4.25348,-2.9925 7.0087,-4.5462 5.96115,-3.3616 6.58345,-3.85935 6.55408,-5.28496 0.45279,-1.95958 -0.26954,-3.22927 -1.62905,-4.12945 -2.22137,-1.46243 -2.86091,-1.9075 -3.37175,-4.84926 -0.24838,-1.43031 -0.77078,-3.03983 -1.15549,-3.58012 -0.58427,-0.82052 -0.64219,-1.21334 -0.37885,-2.34886 0.17339,-0.7477 0.32135,-2.76028 0.32202,-4.47041 0.002,-5.25211 -1.12947,-7.67389 -8.884,-19.13186 -2.36417,-3.49327 -4.5291,-6.98433 -4.81138,-7.7664 -0.28228,-0.78207 -0.7297,-4.23248 -0.98501,-7.65274 -0.71887,-9.63025 -2.35666,-13.70172 -6.68668,-16.55569 -1.688115,-1.11266 -2.077691,-1.23023 -4.148389,-1.19337 -1.674886,0.0298 -2.107527,0.0393 -1.572222,0.15154 -0.952454,-0.003 -1.893207,0.0156 -2.746653,0.0568 l 1.003949,-0.17048 -2.310977,-0.0379 z m 5.493306,11.04344 c 0.588143,0.0149 1.11354,0.31006 1.780589,0.87135 1.415993,1.19147 2.01098,3.14445 1.477509,4.92503 -0.220967,0.73752 -0.633736,1.533 -0.909236,1.76165 -0.427979,0.35519 -0.448943,0.26084 -0.189425,-0.64405 0.386628,-1.34809 -0.154406,-3.36157 -1.022891,-3.82637 -1.773567,-0.94918 -3.807429,0.36715 -3.807429,2.46252 0,1.06892 -0.493289,1.32216 -0.833467,0.43567 -0.693589,-1.80746 0.25632,-4.66654 1.818473,-5.47436 0.548918,-0.28386 1.004318,-0.44956 1.420683,-0.4925 0.08674,-0.009 0.181173,-0.0211 0.265194,-0.0189 z m -10.247857,0.79558 c 0.117779,0.002 0.218866,0.005 0.322022,0.0379 1.079548,0.34264 2.06321,2.19198 2.064725,3.8832 0.0015,1.65558 -0.495285,1.96927 -0.852409,0.53039 -0.292005,-1.17652 -1.482652,-2.5004 -2.25415,-2.5004 -0.713219,0 -1.508566,0.86862 -2.02684,2.23521 -0.370176,0.97608 -0.383769,0.94997 -0.208367,-0.47357 0.102436,-0.83136 0.339739,-1.8032 0.530388,-2.15943 0.474371,-0.88637 1.600185,-1.56979 2.424631,-1.55328 z m -2.708768,5.58802 c 0.06348,-0.002 0.173818,0.16853 0.303079,0.4925 0.187975,0.47113 0.585827,1.14108 0.890295,1.47751 0.304468,0.33643 0.470572,0.60616 0.359906,0.60616 -0.39335,0 -1.631644,-1.83791 -1.610107,-2.38675 0.005,-0.12662 0.01874,-0.18802 0.05683,-0.18942 z m -1.288085,0.45461 0.113655,0.0379 -0.113655,0 c -6.06e-4,-0.0121 6.06e-4,-0.0258 0,-0.0379 z m 17.19973,1.62905 -0.05683,0.11366 -0.07577,0.0189 c 0.04628,-0.0419 0.0874,-0.0875 0.132597,-0.1326 z m -8.902944,0.15154 c 0.88138,0 5.918132,1.87643 6.648794,2.48146 0.237519,0.19668 0.435676,0.48001 0.435676,0.6251 0,0.27413 -3.588577,2.47273 -6.118406,3.7506 -0.158239,0.0799 -0.269741,0.13718 -0.416734,0.20837 -0.06681,0.0324 -0.126371,0.0647 -0.189424,0.0947 -0.04717,0.0236 -0.105554,0.0368 -0.151539,0.0568 -0.63723,0.27777 -1.163559,0.22886 -1.62905,0 -0.07758,-0.0381 -0.15279,-0.0854 -0.227309,-0.1326 -1.522625,-0.89263 -3.816486,-2.82441 -3.655889,-3.27704 0.264253,-0.74477 4.53144,-3.80743 5.303881,-3.80743 z m -6.175233,7.23601 0.814524,0.87135 c 1.26316,1.34458 3.638011,2.36656 4.943975,2.12156 0.612408,-0.11489 2.657572,-1.09546 4.546184,-2.15944 0.451373,-0.25429 0.802407,-0.44928 1.174431,-0.66299 -0.05762,-0.0312 -0.113213,-0.0635 -0.170482,-0.0947 l 0.265194,0.0379 c -0.03629,0.0208 -0.05771,0.0356 -0.09471,0.0568 2.692336,1.45932 5.880772,4.98281 8.107362,7.34967 2.22479,4.18774 5.19704,9.09255 5.94792,11.517 0.82488,2.66333 -0.33892,7.43587 -0.92818,10.17208 -0.23788,0.43064 -0.52912,0.83184 -0.87135,1.17444 -0.16402,0.12505 -0.36041,0.23683 -0.58721,0.34096 l -0.0758,0.0379 c -0.0409,2.5e-4 -0.0698,0 -0.11366,0 -0.77038,0 -1.50485,0.22097 -1.76164,0.53039 -0.28592,0.34452 -0.50498,2.08001 -0.60616,4.92504 l -0.15154,4.39464 -1.97001,1.89424 c -2.11908,2.04306 -4.841955,3.55048 -7.425438,4.12949 -1.958468,0.4389 -8.467807,0.7922 -9.18708,0.4925 -0.285022,-0.1188 -1.147266,-0.92367 -1.913186,-1.78062 l -1.40174,-1.55328 0.966064,-0.96607 c 1.41791,-1.41791 1.159384,-3.45994 -0.6251,-4.98186 -0.222797,-0.19001 -1.977015,-1.642 -3.902141,-3.22021 -4.247523,-3.48209 -4.868206,-4.52605 -4.868206,-8.10736 0,-2.90776 0.67548,-5.54275 2.064726,-8.03159 0.53032,-0.95008 1.551933,-3.40834 2.273092,-5.47437 0.721159,-2.06602 1.928153,-4.70793 2.689825,-5.87215 0.761673,-1.16422 1.716763,-3.24289 2.121553,-4.62195 l 0.738755,-2.51935 z m -14.131056,32.63782 c 1.100647,-0.13534 2.864419,1.96443 5.815327,6.85716 1.124469,1.86442 2.627603,4.12894 3.333869,5.01974 2.966114,3.74111 3.341555,5.51021 1.610106,7.48221 -1.536803,1.7504 -2.182225,1.6919 -8.599864,-0.6819 -2.18517,-0.8082 -5.568045,-1.7441 -7.520146,-2.0836 -4.795702,-0.8342 -4.847258,-0.8762 -4.072624,-3.63699 0.461082,-1.64328 0.5512,-2.77815 0.378849,-4.52724 l -0.227309,-2.32992 2.007898,-0.56827 c 4.279548,-1.19357 4.227571,-1.14694 5.322824,-3.08762 0.57124,-1.01218 1.251938,-2.0355 1.515394,-2.25415 0.131493,-0.10913 0.278441,-0.17009 0.435676,-0.18942 z m 38.358432,1.57222 c 0.18346,0 0.42788,0.62333 0.54933,1.38279 0.12536,0.78399 0.64202,1.84545 1.19337,2.46252 0.87018,0.97391 1.18306,1.09866 2.91713,1.09866 2.4163,0 4.94755,-1.17886 6.0237,-2.80348 0.85404,-1.28932 0.85473,-1.29776 1.26914,1.78059 0.2494,1.8526 0.99407,2.83117 3.20127,4.24311 1.56187,0.99911 1.83287,1.29945 1.49645,1.70481 -0.22549,0.27172 -2.09328,1.3758 -4.14839,2.44358 -2.05511,1.06781 -4.72979,2.78911 -5.92898,3.82641 -1.1992,1.0372 -2.80112,2.1774 -3.56118,2.5382 -0.76006,0.3609 -1.53374,0.6648 -1.72376,0.663 -1.22343,-0.01 -2.59511,-1.9805 -2.59511,-3.7316 0,-0.5606 0.32773,-2.8629 0.71981,-5.11448 0.5524,-3.17225 0.66832,-4.81649 0.4925,-7.29284 -0.14062,-1.98072 -0.11203,-3.20127 0.0947,-3.20127 z"
       id="path3026"
       inkscape:connector-curvature="0" />
    <path
       style="fill:none;stroke:#000000;stroke-width:0.6061579px;stroke-linecap:butt;stroke-linejoin:miter;stroke-opacity:1"
       d="m 88.620952,1005.5965 4.741942,-0.327"
       id="path3796"
       inkscape:connector-curvature="0" />
    <path
       style="fill:none;stroke:#000000;stroke-width:0.6061579px;stroke-linecap:butt;stroke-linejoin:miter;stroke-opacity:1"
       d="m 107.6415,984.29814 c 0,0 0.12564,0.13349 0,0 z"
       id="path3810"
       inkscape:connector-curvature="0" />
  </g>
</svg>
